FrauncesItalic-9G0Light.ufo
<glyph name="quotesingle" format="2">
  <advance width="233"/>
  <unicode hex="0027"/>
  <outline>
    <contour>
      <point x="258" y="1000" type="curve" smooth="yes"/>
      <point x="268" y="1000"/>
      <point x="277" y="1007"/>
      <point x="283" y="1025" type="curve" smooth="yes"/>
      <point x="425" y="1450" type="line" smooth="yes"/>
      <point x="446" y="1514"/>
      <point x="433" y="1538"/>
      <point x="403" y="1538" type="curve" smooth="yes"/>
      <point x="373" y="1538"/>
      <point x="347" y="1508"/>
      <point x="335" y="1450" type="curve" smooth="yes"/>
      <point x="244" y="1025" type="line" smooth="yes"/>
      <point x="240" y="1007"/>
      <point x="247" y="1000"/>
    </contour>
  </outline>
</glyph>
<glyph name="asterisk" format="2">
  <advance width="1243"/>
  <unicode hex="002A"/>
  <outline>
    <contour>
      <point x="765" y="1048" type="line"/>
      <point x="818" y="1289"/>
      <point x="882" y="1432"/>
      <point x="903" y="1512" type="curve" smooth="yes"/>
      <point x="915" y="1554"/>
      <point x="906" y="1575"/>
      <point x="879" y="1575" type="curve" smooth="yes"/>
      <point x="849" y="1575"/>
      <point x="828" y="1554"/>
      <point x="817" y="1512" type="curve" smooth="yes"/>
      <point x="795" y="1432"/>
      <point x="780" y="1289"/>
      <point x="727" y="1048" type="curve"/>
    </contour>
    <contour>
      <point x="745" y="1063" type="curve"/>
      <point x="747" y="1030" type="line"/>
      <point x="959" y="1106"/>
      <point x="1121" y="1126"/>
      <point x="1207" y="1151" type="curve" smooth="yes"/>
      <point x="1252" y="1164"/>
      <point x="1275" y="1185"/>
      <point x="1272" y="1210" type="curve" smooth="yes"/>
      <point x="1271" y="1238"/>
      <point x="1248" y="1244"/>
      <point x="1202" y="1231" type="curve" smooth="yes"/>
      <point x="1116" y="1207"/>
      <point x="957" y="1138"/>
    </contour>
    <contour>
      <point x="757" y="1065" type="line"/>
      <point x="577" y="1140"/>
      <point x="454" y="1207"/>
      <point x="382" y="1231" type="curve" smooth="yes"/>
      <point x="344" y="1244"/>
      <point x="315" y="1236"/>
      <point x="301" y="1212" type="curve" smooth="yes"/>
      <point x="283" y="1185"/>
      <point x="296" y="1164"/>
      <point x="334" y="1151" type="curve" smooth="yes"/>
      <point x="406" y="1126"/>
      <point x="555" y="1107"/>
      <point x="736" y="1032" type="curve"/>
    </contour>
    <contour>
      <point x="732" y="1058" type="line"/>
      <point x="570" y="863"/>
      <point x="430" y="761"/>
      <point x="364" y="698" type="curve" smooth="yes"/>
      <point x="327" y="664"/>
      <point x="320" y="637"/>
      <point x="337" y="621" type="curve" smooth="yes"/>
      <point x="357" y="605"/>
      <point x="385" y="614"/>
      <point x="420" y="648" type="curve" smooth="yes"/>
      <point x="486" y="712"/>
      <point x="595" y="843"/>
      <point x="757" y="1039" type="curve"/>
    </contour>
    <contour>
      <point x="726" y="1038" type="line"/>
      <point x="807" y="843"/>
      <point x="842" y="712"/>
      <point x="873" y="648" type="curve" smooth="yes"/>
      <point x="889" y="614"/>
      <point x="914" y="606"/>
      <point x="938" y="620" type="curve" smooth="yes"/>
      <point x="967" y="638"/>
      <point x="972" y="664"/>
      <point x="957" y="698" type="curve" smooth="yes"/>
      <point x="926" y="761"/>
      <point x="844" y="863"/>
      <point x="763" y="1057" type="curve"/>
    </contour>
  </outline>
</glyph>
<glyph name="asciicircum" format="2">
  <advance width="930"/>
  <unicode hex="005E"/>
  <outline>
    <contour>
      <point x="742" y="1381" type="line"/>
      <point x="286" y="819" type="line" smooth="yes"/>
      <point x="272" y="804"/>
      <point x="261" y="801"/>
      <point x="250" y="801" type="curve" smooth="yes"/>
      <point x="228" y="801"/>
      <point x="232" y="824"/>
      <point x="259" y="850" type="curve" smooth="yes"/>
      <point x="672" y="1386" type="line" smooth="yes"/>
      <point x="698" y="1414"/>
      <point x="709" y="1420"/>
      <point x="726" y="1420" type="curve" smooth="yes"/>
      <point x="743" y="1420"/>
      <point x="751" y="1414"/>
      <point x="760" y="1386" type="curve" smooth="yes"/>
      <point x="894" y="850" type="line" smooth="yes"/>
      <point x="902" y="823"/>
      <point x="892" y="800"/>
      <point x="871" y="800" type="curve" smooth="yes"/>
      <point x="859" y="800"/>
      <point x="850" y="804"/>
      <point x="844" y="818" type="curve" smooth="yes"/>
      <point x="684" y="1381" type="line"/>
    </contour>
  </outline>
</glyph>
<glyph name="section" format="2">
  <advance width="1060"/>
  <unicode hex="00A7"/>
  <outline>
    <contour>
      <point x="390" y="-357" type="curve" smooth="yes"/>
      <point x="578" y="-357"/>
      <point x="719" y="-245"/>
      <point x="757" y="-106" type="curve" smooth="yes"/>
      <point x="800" y="42"/>
      <point x="753" y="166"/>
      <point x="507" y="273" type="curve" smooth="yes"/>
      <point x="306" y="365"/>
      <point x="264" y="468"/>
      <point x="299" y="602" type="curve" smooth="yes"/>
      <point x="328" y="717"/>
      <point x="428" y="806"/>
      <point x="552" y="829" type="curve"/>
      <point x="520" y="859" type="line"/>
      <point x="378" y="822"/>
      <point x="263" y="721"/>
      <point x="230" y="597" type="curve" smooth="yes"/>
      <point x="185" y="436"/>
      <point x="243" y="310"/>
      <point x="460" y="218" type="curve" smooth="yes"/>
      <point x="671" y="129"/>
      <point x="725" y="15"/>
      <point x="690" y="-107" type="curve" smooth="yes"/>
      <point x="655" y="-235"/>
      <point x="543" y="-317"/>
      <point x="405" y="-317" type="curve" smooth="yes"/>
      <point x="258" y="-317"/>
      <point x="135" y="-244"/>
      <point x="108" y="-75" type="curve" smooth="yes"/>
      <point x="104" y="-58"/>
      <point x="95" y="-54"/>
      <point x="81" y="-56" type="curve" smooth="yes"/>
      <point x="65" y="-59"/>
      <point x="56" y="-71"/>
      <point x="56" y="-86" type="curve" smooth="yes"/>
      <point x="61" y="-337" type="line" smooth="yes"/>
      <point x="61" y="-349"/>
      <point x="68" y="-355"/>
      <point x="81" y="-355" type="curve" smooth="yes"/>
      <point x="106" y="-355"/>
      <point x="122" y="-272"/>
      <point x="137" y="-272" type="curve" smooth="yes"/>
      <point x="157" y="-272"/>
      <point x="229" y="-357"/>
    </contour>
    <contour>
      <point x="779" y="1387" type="curve" smooth="yes"/>
      <point x="899" y="1387"/>
      <point x="976" y="1324"/>
      <point x="1006" y="1197" type="curve" smooth="yes"/>
      <point x="1017" y="1145" type="line" smooth="yes"/>
      <point x="1023" y="1122"/>
      <point x="1038" y="1105"/>
      <point x="1066" y="1105" type="curve" smooth="yes"/>
      <point x="1090" y="1105"/>
      <point x="1109" y="1128"/>
      <point x="1109" y="1163" type="curve" smooth="yes"/>
      <point x="1109" y="1297"/>
      <point x="994" y="1424"/>
      <point x="788" y="1424" type="curve" smooth="yes"/>
      <point x="604" y="1424"/>
      <point x="437" y="1313"/>
      <point x="393" y="1153" type="curve" smooth="yes"/>
      <point x="346" y="987"/>
      <point x="425" y="853"/>
      <point x="624" y="764" type="curve" smooth="yes"/>
      <point x="841" y="668"/>
      <point x="891" y="557"/>
      <point x="857" y="442" type="curve" smooth="yes"/>
      <point x="825" y="328"/>
      <point x="722" y="235"/>
      <point x="580" y="226" type="curve"/>
      <point x="575" y="190" type="line"/>
      <point x="744" y="200"/>
      <point x="888" y="308"/>
      <point x="925" y="445" type="curve" smooth="yes"/>
      <point x="965" y="593"/>
      <point x="898" y="719"/>
      <point x="665" y="822" type="curve" smooth="yes"/>
      <point x="491" y="902"/>
      <point x="426" y="1018"/>
      <point x="461" y="1146" type="curve" smooth="yes"/>
      <point x="502" y="1296"/>
      <point x="623" y="1387"/>
    </contour>
  </outline>
</glyph>
<glyph name="ordfeminine" format="2">
  <advance width="937"/>
  <unicode hex="00AA"/>
  <outline>
    <contour>
      <point x="781" y="799" type="curve" smooth="yes"/>
      <point x="921" y="1313" type="line" smooth="yes"/>
      <point x="927" y="1333"/>
      <point x="953" y="1348"/>
      <point x="953" y="1370" type="curve" smooth="yes"/>
      <point x="953" y="1399"/>
      <point x="900" y="1420"/>
      <point x="815" y="1420" type="curve" smooth="yes"/>
      <point x="536" y="1420"/>
      <point x="236" y="1152"/>
      <point x="226" y="861" type="curve" smooth="yes"/>
      <point x="217" y="702"/>
      <point x="278" y="643"/>
      <point x="369" y="643" type="curve" smooth="yes"/>
      <point x="525" y="643"/>
      <point x="702" y="814"/>
      <point x="828" y="1104" type="curve"/>
      <point x="819" y="1108" type="line"/>
      <point x="724" y="827"/>
      <point x="705" y="754"/>
      <point x="705" y="707" type="curve" smooth="yes"/>
      <point x="705" y="660"/>
      <point x="732" y="643"/>
      <point x="777" y="643" type="curve" smooth="yes"/>
      <point x="839" y="643"/>
      <point x="900" y="680"/>
      <point x="928" y="729" type="curve" smooth="yes"/>
      <point x="937" y="741"/>
      <point x="935" y="750"/>
      <point x="927" y="754" type="curve" smooth="yes"/>
      <point x="918" y="759"/>
      <point x="908" y="752"/>
      <point x="889" y="741" type="curve" smooth="yes"/>
      <point x="857" y="705"/>
      <point x="832" y="691"/>
      <point x="807" y="691" type="curve" smooth="yes"/>
      <point x="767" y="691"/>
      <point x="763" y="717"/>
    </contour>
    <contour>
      <point x="293" y="866" type="curve" smooth="yes"/>
      <point x="305" y="1139"/>
      <point x="565" y="1382"/>
      <point x="794" y="1382" type="curve" smooth="yes"/>
      <point x="843" y="1382"/>
      <point x="869" y="1367"/>
      <point x="867" y="1332" type="curve" smooth="yes"/>
      <point x="838" y="1023"/>
      <point x="573" y="685"/>
      <point x="397" y="685" type="curve" smooth="yes"/>
      <point x="325" y="685"/>
      <point x="285" y="735"/>
    </contour>
  </outline>
</glyph>
<glyph name="registered" format="2">
  <advance width="1404"/>
  <unicode hex="00AE"/>
  <outline>
    <contour>
      <point x="650" y="290" type="curve" smooth="yes"/>
      <point x="295" y="290"/>
      <point x="110" y="557"/>
      <point x="204" y="914" type="curve" smooth="yes"/>
      <point x="294" y="1249"/>
      <point x="615" y="1489"/>
      <point x="970" y="1489" type="curve" smooth="yes"/>
      <point x="1321" y="1489"/>
      <point x="1517" y="1234"/>
      <point x="1424" y="882" type="curve" smooth="yes"/>
      <point x="1332" y="542"/>
      <point x="1008" y="290"/>
    </contour>
    <contour>
      <point x="663" y="329" type="curve" smooth="yes"/>
      <point x="987" y="329"/>
      <point x="1282" y="567"/>
      <point x="1366" y="883" type="curve" smooth="yes"/>
      <point x="1449" y="1210"/>
      <point x="1272" y="1449"/>
      <point x="956" y="1449" type="curve" smooth="yes"/>
      <point x="637" y="1449"/>
      <point x="345" y="1228"/>
      <point x="263" y="915" type="curve" smooth="yes"/>
      <point x="177" y="582"/>
      <point x="342" y="329"/>
    </contour>
    <contour>
      <point x="1113" y="1016" type="curve" smooth="yes"/>
      <point x="1150" y="1162"/>
      <point x="1059" y="1266"/>
      <point x="888" y="1266" type="curve" smooth="yes"/>
      <point x="654" y="1266" type="line" smooth="yes"/>
      <point x="641" y="1266"/>
      <point x="631" y="1260"/>
      <point x="628" y="1251" type="curve" smooth="yes"/>
      <point x="625" y="1241"/>
      <point x="633" y="1235"/>
      <point x="647" y="1232" type="curve" smooth="yes"/>
      <point x="681" y="1225" type="line" smooth="yes"/>
      <point x="699" y="1222"/>
      <point x="702" y="1207"/>
      <point x="696" y="1178" type="curve" smooth="yes"/>
      <point x="682" y="1107"/>
      <point x="576" y="697"/>
      <point x="557" y="622" type="curve" smooth="yes"/>
      <point x="550" y="593"/>
      <point x="533" y="579"/>
      <point x="512" y="575" type="curve" smooth="yes"/>
      <point x="476" y="566" type="line" smooth="yes"/>
      <point x="459" y="563"/>
      <point x="448" y="561"/>
      <point x="446" y="551" type="curve" smooth="yes"/>
      <point x="443" y="543"/>
      <point x="450" y="539"/>
      <point x="464" y="539" type="curve" smooth="yes"/>
      <point x="677" y="539" type="line" smooth="yes"/>
      <point x="690" y="539"/>
      <point x="699" y="543"/>
      <point x="701" y="551" type="curve" smooth="yes"/>
      <point x="703" y="560"/>
      <point x="697" y="564"/>
      <point x="682" y="566" type="curve" smooth="yes"/>
      <point x="644" y="573" type="line" smooth="yes"/>
      <point x="621" y="577"/>
      <point x="615" y="593"/>
      <point x="622" y="623" type="curve" smooth="yes"/>
      <point x="639" y="697"/>
      <point x="742" y="1100"/>
      <point x="758" y="1171" type="curve" smooth="yes"/>
      <point x="768" y="1216"/>
      <point x="800" y="1233"/>
      <point x="878" y="1233" type="curve" smooth="yes"/>
      <point x="1013" y="1233"/>
      <point x="1078" y="1149"/>
      <point x="1046" y="1017" type="curve" smooth="yes"/>
      <point x="1025" y="921"/>
      <point x="934" y="848"/>
      <point x="815" y="848" type="curve" smooth="yes"/>
      <point x="772" y="848"/>
      <point x="704" y="861"/>
      <point x="657" y="890" type="curve"/>
      <point x="638" y="859" type="line"/>
      <point x="682" y="833"/>
      <point x="746" y="815"/>
      <point x="807" y="815" type="curve" smooth="yes"/>
      <point x="827" y="815"/>
      <point x="846" y="816"/>
      <point x="865" y="819" type="curve" smooth="yes"/>
      <point x="979" y="836"/>
      <point x="1086" y="912"/>
    </contour>
    <contour>
      <point x="810" y="831" type="line"/>
      <point x="854" y="635" type="line" smooth="yes"/>
      <point x="872" y="554"/>
      <point x="905" y="526"/>
      <point x="955" y="526" type="curve" smooth="yes"/>
      <point x="999" y="526"/>
      <point x="1027" y="545"/>
      <point x="1040" y="572" type="curve" smooth="yes"/>
      <point x="1048" y="583"/>
      <point x="1045" y="594"/>
      <point x="1035" y="596" type="curve" smooth="yes"/>
      <point x="1028" y="598"/>
      <point x="1021" y="595"/>
      <point x="1014" y="588" type="curve" smooth="yes"/>
      <point x="1004" y="576"/>
      <point x="990" y="567"/>
      <point x="974" y="567" type="curve" smooth="yes"/>
      <point x="950" y="567"/>
      <point x="932" y="581"/>
      <point x="919" y="639" type="curve" smooth="yes"/>
      <point x="871" y="843" type="line"/>
    </contour>
  </outline>
</glyph>
<glyph name="threesuperior" format="2">
  <advance width="638"/>
  <unicode hex="00B3"/>
  <outline>
    <contour>
      <point x="441" y="1085" type="line"/>
      <point x="768" y="1361" type="line" smooth="yes"/>
      <point x="784" y="1372"/>
      <point x="794" y="1379"/>
      <point x="798" y="1387" type="curve" smooth="yes"/>
      <point x="800" y="1395"/>
      <point x="793" y="1401"/>
      <point x="782" y="1401" type="curve" smooth="yes"/>
      <point x="424" y="1401" type="line" smooth="yes"/>
      <point x="402" y="1401"/>
      <point x="390" y="1391"/>
      <point x="383" y="1376" type="curve" smooth="yes"/>
      <point x="343" y="1271" type="line" smooth="yes"/>
      <point x="335" y="1257"/>
      <point x="339" y="1249"/>
      <point x="353" y="1249" type="curve" smooth="yes"/>
      <point x="366" y="1249"/>
      <point x="376" y="1255"/>
      <point x="386" y="1268" type="curve" smooth="yes"/>
      <point x="412" y="1322" type="line" smooth="yes"/>
      <point x="423" y="1340"/>
      <point x="433" y="1348"/>
      <point x="454" y="1348" type="curve" smooth="yes"/>
      <point x="735" y="1348" type="line"/>
      <point x="740" y="1370" type="line"/>
      <point x="432" y="1114" type="line" smooth="yes"/>
      <point x="418" y="1104"/>
      <point x="407" y="1097"/>
      <point x="404" y="1087" type="curve" smooth="yes"/>
      <point x="400" y="1077"/>
      <point x="408" y="1071"/>
      <point x="422" y="1071" type="curve" smooth="yes"/>
      <point x="454" y="1071" type="line" smooth="yes"/>
      <point x="582" y="1071"/>
      <point x="623" y="1011"/>
      <point x="595" y="909" type="curve" smooth="yes"/>
      <point x="570" y="808"/>
      <point x="487" y="755"/>
      <point x="399" y="755" type="curve" smooth="yes"/>
      <point x="305" y="755"/>
      <point x="270" y="791"/>
      <point x="285" y="852" type="curve" smooth="yes"/>
      <point x="295" y="890" type="line" smooth="yes"/>
      <point x="302" y="918"/>
      <point x="297" y="934"/>
      <point x="275" y="934" type="curve" smooth="yes"/>
      <point x="250" y="934"/>
      <point x="229" y="914"/>
      <point x="219" y="877" type="curve" smooth="yes"/>
      <point x="197" y="796"/>
      <point x="251" y="724"/>
      <point x="384" y="724" type="curve" smooth="yes"/>
      <point x="515" y="724"/>
      <point x="630" y="793"/>
      <point x="658" y="904" type="curve" smooth="yes"/>
      <point x="689" y="1020"/>
      <point x="633" y="1101"/>
      <point x="484" y="1101" type="curve" smooth="yes"/>
      <point x="477" y="1101"/>
      <point x="453" y="1101"/>
      <point x="447" y="1100" type="curve"/>
    </contour>
  </outline>
</glyph>
<glyph name="onesuperior" format="2">
  <advance width="534"/>
  <unicode hex="00B9"/>
  <outline>
    <contour>
      <point x="367" y="1339" type="line" smooth="yes"/>
      <point x="351" y="1339"/>
      <point x="345" y="1345"/>
      <point x="349" y="1358" type="curve" smooth="yes"/>
      <point x="352" y="1367"/>
      <point x="364" y="1374"/>
      <point x="378" y="1374" type="curve" smooth="yes"/>
      <point x="465" y="1375" type="line" smooth="yes"/>
      <point x="488" y="1375"/>
      <point x="500" y="1382"/>
      <point x="519" y="1409" type="curve" smooth="yes"/>
      <point x="528" y="1418"/>
      <point x="539" y="1423"/>
      <point x="550" y="1423" type="curve" smooth="yes"/>
      <point x="566" y="1423"/>
      <point x="572" y="1417"/>
      <point x="567" y="1401" type="curve" smooth="yes"/>
      <point x="410" y="809" type="line" smooth="yes"/>
      <point x="404" y="789"/>
      <point x="409" y="776"/>
      <point x="434" y="773" type="curve" smooth="yes"/>
      <point x="509" y="766" type="line" smooth="yes"/>
      <point x="520" y="765"/>
      <point x="524" y="759"/>
      <point x="522" y="750" type="curve" smooth="yes"/>
      <point x="518" y="741"/>
      <point x="511" y="736"/>
      <point x="497" y="736" type="curve" smooth="yes"/>
      <point x="200" y="736" type="line" smooth="yes"/>
      <point x="188" y="736"/>
      <point x="183" y="742"/>
      <point x="186" y="750" type="curve" smooth="yes"/>
      <point x="189" y="759"/>
      <point x="199" y="766"/>
      <point x="211" y="767" type="curve" smooth="yes"/>
      <point x="297" y="773" type="line" smooth="yes"/>
      <point x="320" y="776"/>
      <point x="337" y="788"/>
      <point x="342" y="810" type="curve" smooth="yes"/>
      <point x="472" y="1307" type="line" smooth="yes"/>
      <point x="480" y="1332"/>
      <point x="474" y="1338"/>
      <point x="450" y="1338" type="curve" smooth="yes"/>
    </contour>
  </outline>
</glyph>
<glyph name="eth" format="2">
  <advance width="916"/>
  <unicode hex="00F0"/>
  <outline>
    <contour>
      <point x="822" y="426" type="curve" smooth="yes"/>
      <point x="947" y="869"/>
      <point x="808" y="1365"/>
      <point x="504" y="1477" type="curve" smooth="yes"/>
      <point x="492" y="1481"/>
      <point x="483" y="1481"/>
      <point x="475" y="1471" type="curve" smooth="yes"/>
      <point x="468" y="1462"/>
      <point x="469" y="1454"/>
      <point x="480" y="1449" type="curve" smooth="yes"/>
      <point x="689" y="1349"/>
      <point x="815" y="1019"/>
      <point x="800" y="570" type="curve"/>
      <point x="810" y="572" type="line"/>
      <point x="811" y="802"/>
      <point x="724" y="921"/>
      <point x="563" y="926" type="curve" smooth="yes"/>
      <point x="346" y="931"/>
      <point x="160" y="752"/>
      <point x="94" y="519" type="curve" smooth="yes"/>
      <point x="3" y="201"/>
      <point x="122" y="-12"/>
      <point x="331" y="-19" type="curve" smooth="yes"/>
      <point x="553" y="-25"/>
      <point x="742" y="141"/>
    </contour>
    <contour>
      <point x="347" y="22" type="curve" smooth="yes"/>
      <point x="172" y="29"/>
      <point x="81" y="232"/>
      <point x="162" y="514" type="curve" smooth="yes"/>
      <point x="226" y="750"/>
      <point x="382" y="892"/>
      <point x="564" y="886" type="curve" smooth="yes"/>
      <point x="728" y="881"/>
      <point x="826" y="687"/>
      <point x="751" y="417" type="curve" smooth="yes"/>
      <point x="677" y="147"/>
      <point x="505" y="15"/>
    </contour>
    <contour>
      <point x="990" y="1349" type="line" smooth="yes"/>
      <point x="1003" y="1354"/>
      <point x="1012" y="1364"/>
      <point x="1008" y="1375" type="curve" smooth="yes"/>
      <point x="1006" y="1386"/>
      <point x="996" y="1389"/>
      <point x="982" y="1384" type="curve" smooth="yes"/>
      <point x="449" y="1154" type="line" smooth="yes"/>
      <point x="435" y="1149"/>
      <point x="427" y="1139"/>
      <point x="430" y="1126" type="curve" smooth="yes"/>
      <point x="432" y="1117"/>
      <point x="441" y="1114"/>
      <point x="456" y="1119" type="curve" smooth="yes"/>
    </contour>
  </outline>
</glyph>
<glyph name="eogonek" format="2">
  <advance width="840"/>
  <unicode hex="0119"/>
  <outline>
    <contour>
      <point x="138" y="398" type="line"/>
      <point x="289" y="466"/>
      <point x="589" y="588"/>
      <point x="785" y="671" type="curve"/>
      <point x="799" y="677"/>
      <point x="810" y="684"/>
      <point x="809" y="698" type="curve" smooth="yes"/>
      <point x="809" y="713"/>
      <point x="797" y="718"/>
      <point x="782" y="713" type="curve" smooth="yes"/>
      <point x="766" y="708"/>
      <point x="757" y="714"/>
      <point x="757" y="725" type="curve" smooth="yes"/>
      <point x="757" y="834"/>
      <point x="693" y="922"/>
      <point x="577" y="922" type="curve" smooth="yes"/>
      <point x="342" y="922"/>
      <point x="94" y="616"/>
      <point x="81" y="297" type="curve" smooth="yes"/>
      <point x="72" y="99"/>
      <point x="170" y="-15"/>
      <point x="333" y="-15" type="curve" smooth="yes"/>
      <point x="355" y="-15"/>
      <point x="381" y="-14"/>
      <point x="435" y="-4" type="curve"/>
      <point x="430" y="6" type="line"/>
      <point x="274" y="-90"/>
      <point x="201" y="-199"/>
      <point x="201" y="-290" type="curve" smooth="yes"/>
      <point x="201" y="-369"/>
      <point x="253" y="-417"/>
      <point x="343" y="-417" type="curve" smooth="yes"/>
      <point x="428" y="-417"/>
      <point x="499" y="-364"/>
      <point x="518" y="-316" type="curve" smooth="yes"/>
      <point x="523" y="-305"/>
      <point x="518" y="-300"/>
      <point x="511" y="-300" type="curve" smooth="yes"/>
      <point x="503" y="-299"/>
      <point x="497" y="-302"/>
      <point x="489" y="-312" type="curve" smooth="yes"/>
      <point x="458" y="-354"/>
      <point x="405" y="-378"/>
      <point x="357" y="-378" type="curve" smooth="yes"/>
      <point x="305" y="-378"/>
      <point x="270" y="-344"/>
      <point x="270" y="-277" type="curve" smooth="yes"/>
      <point x="270" y="-175"/>
      <point x="366" y="-63"/>
      <point x="526" y="22" type="curve" smooth="yes"/>
      <point x="646" y="84"/>
      <point x="717" y="174"/>
      <point x="728" y="275" type="curve" smooth="yes"/>
      <point x="729" y="291"/>
      <point x="724" y="299"/>
      <point x="715" y="299" type="curve" smooth="yes"/>
      <point x="707" y="299"/>
      <point x="701" y="294"/>
      <point x="696" y="281" type="curve" smooth="yes"/>
      <point x="635" y="112"/>
      <point x="506" y="29"/>
      <point x="370" y="29" type="curve" smooth="yes"/>
      <point x="236" y="29"/>
      <point x="145" y="127"/>
      <point x="154" y="329" type="curve" smooth="yes"/>
      <point x="170" y="623"/>
      <point x="388" y="886"/>
      <point x="551" y="886" type="curve" smooth="yes"/>
      <point x="631" y="886"/>
      <point x="685" y="815"/>
      <point x="685" y="714" type="curve" smooth="yes"/>
      <point x="685" y="696"/>
      <point x="684" y="681"/>
      <point x="677" y="642" type="curve"/>
      <point x="710" y="676" type="line"/>
      <point x="523" y="597"/>
      <point x="272" y="490"/>
      <point x="131" y="429" type="curve"/>
    </contour>
  </outline>
</glyph>
<glyph name="iogonek" format="2">
  <advance width="531"/>
  <unicode hex="012F"/>
  <outline>
    <contour>
      <point x="266" y="34" type="line"/>
      <point x="78" y="-41"/>
      <point x="-39" y="-174"/>
      <point x="-39" y="-290" type="curve" smooth="yes"/>
      <point x="-39" y="-368"/>
      <point x="12" y="-417"/>
      <point x="102" y="-417" type="curve" smooth="yes"/>
      <point x="186" y="-417"/>
      <point x="257" y="-364"/>
      <point x="277" y="-316" type="curve" smooth="yes"/>
      <point x="281" y="-305"/>
      <point x="276" y="-300"/>
      <point x="270" y="-300" type="curve" smooth="yes"/>
      <point x="262" y="-299"/>
      <point x="256" y="-302"/>
      <point x="248" y="-312" type="curve" smooth="yes"/>
      <point x="216" y="-354"/>
      <point x="163" y="-378"/>
      <point x="116" y="-378" type="curve" smooth="yes"/>
      <point x="64" y="-378"/>
      <point x="30" y="-345"/>
      <point x="30" y="-282" type="curve" smooth="yes"/>
      <point x="30" y="-176"/>
      <point x="122" y="-64"/>
      <point x="275" y="9" type="curve"/>
    </contour>
    <component base="i" xOffset="-20"/>
  </outline>
</glyph>
<glyph name="dotlessi" format="2">
  <advance width="558"/>
  <unicode hex="0131"/>
  <anchor x="408" y="1000" name="center"/>
  <outline>
    <contour>
      <point x="244" y="40" type="curve" smooth="yes"/>
      <point x="270" y="40"/>
      <point x="299" y="56"/>
      <point x="344" y="103" type="curve" smooth="yes"/>
      <point x="359" y="113"/>
      <point x="371" y="124"/>
      <point x="383" y="118" type="curve" smooth="yes"/>
      <point x="392" y="113"/>
      <point x="393" y="101"/>
      <point x="385" y="89" type="curve" smooth="yes"/>
      <point x="347" y="29"/>
      <point x="277" y="-14"/>
      <point x="214" y="-14" type="curve" smooth="yes"/>
      <point x="146" y="-14"/>
      <point x="100" y="32"/>
      <point x="155" y="173" type="curve" smooth="yes"/>
      <point x="346" y="689" type="line" smooth="yes"/>
      <point x="395" y="824"/>
      <point x="386" y="866"/>
      <point x="335" y="866" type="curve" smooth="yes"/>
      <point x="309" y="866"/>
      <point x="276" y="848"/>
      <point x="234" y="803" type="curve" smooth="yes"/>
      <point x="220" y="792"/>
      <point x="208" y="782"/>
      <point x="196" y="787" type="curve" smooth="yes"/>
      <point x="186" y="792"/>
      <point x="185" y="805"/>
      <point x="195" y="817" type="curve" smooth="yes"/>
      <point x="238" y="882"/>
      <point x="310" y="921"/>
      <point x="366" y="921" type="curve" smooth="yes"/>
      <point x="434" y="921"/>
      <point x="477" y="874"/>
      <point x="420" y="725" type="curve" smooth="yes"/>
      <point x="228" y="202" type="line" smooth="yes"/>
      <point x="181" y="75"/>
      <point x="195" y="40"/>
    </contour>
  </outline>
</glyph>
<glyph name="OE" format="2">
  <advance width="1876"/>
  <unicode hex="0152"/>
  <outline>
    <contour>
      <point x="1441" y="0" type="line" smooth="yes"/>
      <point x="1474" y="0"/>
      <point x="1488" y="-26"/>
      <point x="1511" y="-26" type="curve" smooth="yes"/>
      <point x="1616" y="-26"/>
      <point x="1738" y="143"/>
      <point x="1738" y="284" type="curve" smooth="yes"/>
      <point x="1738" y="296"/>
      <point x="1731" y="303"/>
      <point x="1721" y="303" type="curve" smooth="yes"/>
      <point x="1714" y="303"/>
      <point x="1704" y="298"/>
      <point x="1701" y="288" type="curve" smooth="yes"/>
      <point x="1638" y="107"/>
      <point x="1543" y="33"/>
      <point x="1404" y="33" type="curve" smooth="yes"/>
      <point x="1069" y="33" type="line" smooth="yes"/>
      <point x="998" y="33"/>
      <point x="973" y="62"/>
      <point x="988" y="115" type="curve" smooth="yes"/>
      <point x="1019" y="298"/>
      <point x="1227" y="1020"/>
      <point x="1315" y="1369" type="curve"/>
      <point x="1700" y="1369" type="line" smooth="yes"/>
      <point x="1771" y="1369"/>
      <point x="1822" y="1336"/>
      <point x="1882" y="1173" type="curve" smooth="yes"/>
      <point x="1892" y="1153"/>
      <point x="1903" y="1142"/>
      <point x="1919" y="1142" type="curve" smooth="yes"/>
      <point x="1935" y="1142"/>
      <point x="1946" y="1154"/>
      <point x="1939" y="1178" type="curve" smooth="yes"/>
      <point x="1886" y="1407" type="line" smooth="yes"/>
      <point x="1880" y="1430"/>
      <point x="1872" y="1437"/>
      <point x="1855" y="1437" type="curve" smooth="yes"/>
      <point x="1827" y="1437"/>
      <point x="1797" y="1400"/>
      <point x="1747" y="1400" type="curve" smooth="yes"/>
      <point x="1059" y="1400" type="line" smooth="yes"/>
      <point x="667" y="1400"/>
      <point x="311" y="1145"/>
      <point x="205" y="749" type="curve" smooth="yes"/>
      <point x="83" y="313"/>
      <point x="287" y="0"/>
      <point x="663" y="0" type="curve" smooth="yes"/>
    </contour>
    <contour>
      <point x="290" y="768" type="curve" smooth="yes"/>
      <point x="384" y="1133"/>
      <point x="692" y="1355"/>
      <point x="1044" y="1355" type="curve" smooth="yes"/>
      <point x="1229" y="1355" type="line"/>
      <point x="884" y="41" type="line"/>
      <point x="693" y="41" type="line" smooth="yes"/>
      <point x="357" y="41"/>
      <point x="173" y="333"/>
    </contour>
    <contour>
      <point x="1104" y="707" type="line"/>
      <point x="1093" y="674" type="line"/>
      <point x="1514" y="674" type="line" smooth="yes"/>
      <point x="1576" y="674"/>
      <point x="1604" y="652"/>
      <point x="1632" y="555" type="curve" smooth="yes"/>
      <point x="1639" y="539"/>
      <point x="1649" y="532"/>
      <point x="1664" y="533" type="curve" smooth="yes"/>
      <point x="1677" y="534"/>
      <point x="1688" y="543"/>
      <point x="1683" y="565" type="curve" smooth="yes"/>
      <point x="1620" y="848" type="line" smooth="yes"/>
      <point x="1618" y="860"/>
      <point x="1611" y="868"/>
      <point x="1594" y="868" type="curve" smooth="yes"/>
      <point x="1582" y="868"/>
      <point x="1574" y="860"/>
      <point x="1576" y="847" type="curve" smooth="yes"/>
      <point x="1588" y="736"/>
      <point x="1560" y="707"/>
      <point x="1499" y="707" type="curve" smooth="yes"/>
    </contour>
  </outline>
</glyph>
<glyph name="fhook" format="2">
  <advance width="713"/>
  <unicode hex="0192"/>
  <outline>
    <contour>
      <point x="586" y="1216" type="curve" smooth="yes"/>
      <point x="619" y="1315"/>
      <point x="667" y="1363"/>
      <point x="733" y="1363" type="curve" smooth="yes"/>
      <point x="785" y="1363"/>
      <point x="804" y="1334"/>
      <point x="845" y="1334" type="curve" smooth="yes"/>
      <point x="885" y="1334"/>
      <point x="903" y="1354"/>
      <point x="903" y="1378" type="curve" smooth="yes"/>
      <point x="903" y="1406"/>
      <point x="873" y="1429"/>
      <point x="810" y="1429" type="curve" smooth="yes"/>
      <point x="670" y="1429"/>
      <point x="589" y="1346"/>
      <point x="515" y="1164" type="curve" smooth="yes"/>
      <point x="398" y="862" type="line"/>
      <point x="441" y="892" type="line"/>
      <point x="256" y="892" type="line" smooth="yes"/>
      <point x="242" y="892"/>
      <point x="230" y="886"/>
      <point x="228" y="879" type="curve" smooth="yes"/>
      <point x="225" y="870"/>
      <point x="232" y="863"/>
      <point x="247" y="861" type="curve" smooth="yes"/>
      <point x="340" y="845" type="line" smooth="yes"/>
      <point x="368" y="842"/>
      <point x="382" y="824"/>
      <point x="367" y="789" type="curve" smooth="yes"/>
      <point x="88" y="30" type="line" smooth="yes"/>
      <point x="61" y="-49"/>
      <point x="49" y="-139"/>
      <point x="22" y="-226" type="curve" smooth="yes"/>
      <point x="-16" y="-352"/>
      <point x="-73" y="-397"/>
      <point x="-139" y="-397" type="curve" smooth="yes"/>
      <point x="-192" y="-397"/>
      <point x="-210" y="-370"/>
      <point x="-252" y="-370" type="curve" smooth="yes"/>
      <point x="-291" y="-370"/>
      <point x="-309" y="-391"/>
      <point x="-309" y="-414" type="curve" smooth="yes"/>
      <point x="-309" y="-442"/>
      <point x="-279" y="-465"/>
      <point x="-216" y="-465" type="curve" smooth="yes"/>
      <point x="-75" y="-465"/>
      <point x="14" y="-385"/>
      <point x="81" y="-200" type="curve" smooth="yes"/>
      <point x="514" y="985" type="line" smooth="yes"/>
      <point x="541" y="1057"/>
      <point x="565" y="1148"/>
    </contour>
    <contour>
      <point x="440" y="856" type="line"/>
      <point x="696" y="856" type="line" smooth="yes"/>
      <point x="722" y="856"/>
      <point x="737" y="864"/>
      <point x="742" y="875" type="curve" smooth="yes"/>
      <point x="746" y="887"/>
      <point x="737" y="892"/>
      <point x="722" y="892" type="curve" smooth="yes"/>
      <point x="465" y="892" type="line"/>
    </contour>
  </outline>
</glyph>
<glyph name="Ohorn" format="2">
  <advance width="1512"/>
  <unicode hex="01A0"/>
  <anchor x="1033" y="1546.0" name="center"/>
  <outline>
    <contour>
      <point x="1682" y="1599" type="curve" smooth="yes"/>
      <point x="1690" y="1634"/>
      <point x="1673" y="1655"/>
      <point x="1645" y="1655" type="curve" smooth="yes"/>
      <point x="1614" y="1655"/>
      <point x="1589" y="1634"/>
      <point x="1582" y="1601" type="curve" smooth="yes"/>
      <point x="1572" y="1559" type="line" smooth="yes"/>
      <point x="1548" y="1453"/>
      <point x="1469" y="1389"/>
      <point x="1285" y="1391" type="curve" smooth="yes"/>
      <point x="1238" y="1392"/>
      <point x="1185" y="1397"/>
      <point x="1124" y="1406" type="curve"/>
      <point x="1118" y="1380" type="line"/>
      <point x="1438" y="1312"/>
      <point x="1640" y="1430"/>
    </contour>
    <component base="O" xOffset="8"/>
  </outline>
</glyph>
<glyph name="primemod" format="2">
  <advance width="474"/>
  <unicode hex="02B9"/>
  <outline>
    <contour>
      <point x="239" y="795" type="curve" smooth="yes"/>
      <point x="253" y="795"/>
      <point x="271" y="802"/>
      <point x="283" y="818" type="curve" smooth="yes"/>
      <point x="657" y="1467" type="line" smooth="yes"/>
      <point x="677" y="1493"/>
      <point x="674" y="1509"/>
      <point x="651" y="1509" type="curve" smooth="yes"/>
      <point x="632" y="1509"/>
      <point x="620" y="1500"/>
      <point x="602" y="1476" type="curve" smooth="yes"/>
      <point x="232" y="825" type="line" smooth="yes"/>
      <point x="218" y="806"/>
      <point x="224" y="795"/>
    </contour>
  </outline>
</glyph>
<glyph name="dieresiscmb" format="2">
  <advance width="566"/>
  <unicode hex="0308"/>
  <anchor x="320" y="949" name="center"/>
  <outline>
    <contour>
      <point x="123" y="1069" type="curve" smooth="yes"/>
      <point x="162" y="1069"/>
      <point x="197" y="1102"/>
      <point x="207" y="1141" type="curve" smooth="yes"/>
      <point x="217" y="1181"/>
      <point x="200" y="1213"/>
      <point x="162" y="1213" type="curve" smooth="yes"/>
      <point x="123" y="1213"/>
      <point x="88" y="1181"/>
      <point x="78" y="1141" type="curve" smooth="yes"/>
      <point x="68" y="1102"/>
      <point x="85" y="1069"/>
    </contour>
    <contour>
      <point x="444" y="1069" type="curve" smooth="yes"/>
      <point x="482" y="1069"/>
      <point x="517" y="1102"/>
      <point x="527" y="1141" type="curve" smooth="yes"/>
      <point x="538" y="1181"/>
      <point x="520" y="1213"/>
      <point x="482" y="1213" type="curve" smooth="yes"/>
      <point x="444" y="1213"/>
      <point x="409" y="1181"/>
      <point x="399" y="1141" type="curve" smooth="yes"/>
      <point x="388" y="1102"/>
      <point x="406" y="1069"/>
    </contour>
  </outline>
</glyph>
<glyph name="dotbelowcmb" format="2">
  <advance width="246"/>
  <unicode hex="0323"/>
  <outline>
    <contour>
      <point x="123" y="-315" type="curve" smooth="yes"/>
      <point x="162" y="-315"/>
      <point x="197" y="-282"/>
      <point x="207" y="-242" type="curve" smooth="yes"/>
      <point x="217" y="-203"/>
      <point x="200" y="-171"/>
      <point x="162" y="-171" type="curve" smooth="yes"/>
      <point x="123" y="-171"/>
      <point x="88" y="-203"/>
      <point x="78" y="-242" type="curve" smooth="yes"/>
      <point x="68" y="-282"/>
      <point x="85" y="-315"/>
    </contour>
  </outline>
</glyph>
<glyph name="quoteleft" format="2">
  <advance width="303"/>
  <unicode hex="2018"/>
  <outline>
    <contour>
      <point x="262.21248947514005" y="1271.21647160788" type="curve" smooth="yes"/>
      <point x="242.21248947514005" y="1271.21647160788" type="line" smooth="yes"/>
      <point x="224.21248947514005" y="1271.21647160788"/>
      <point x="218.21248947514005" y="1283.21647160788"/>
      <point x="226.21248947514005" y="1307.21647160788" type="curve" smooth="yes"/>
      <point x="245.21248947514005" y="1385.21647160788"/>
      <point x="312.21248947514005" y="1469.21647160788"/>
      <point x="392.21248947514005" y="1498.21647160788" type="curve" smooth="yes"/>
      <point x="407.21248947514005" y="1502.21647160788"/>
      <point x="416.21248947514005" y="1513.21647160788"/>
      <point x="413.21248947514005" y="1522.21647160788" type="curve" smooth="yes"/>
      <point x="412.21248947514005" y="1532.21647160788"/>
      <point x="403.21248947514005" y="1534.21647160788"/>
      <point x="384.21248947514005" y="1529.21647160788" type="curve" smooth="yes"/>
      <point x="289.21248947514005" y="1498.21647160788"/>
      <point x="200.21248947514005" y="1401.21647160788"/>
      <point x="168.21248947514005" y="1277.21647160788" type="curve" smooth="yes"/>
      <point x="139.21248947514005" y="1177.21647160788"/>
      <point x="163.21248947514005" y="1126.21647160788"/>
      <point x="216.21248947514005" y="1126.21647160788" type="curve" smooth="yes"/>
      <point x="262.21248947514005" y="1126.21647160788"/>
      <point x="303.21248947514005" y="1157.21647160788"/>
      <point x="315.21248947514005" y="1201.21647160788" type="curve" smooth="yes"/>
      <point x="326.21248947514005" y="1241.21647160788"/>
      <point x="307.21248947514005" y="1271.21647160788"/>
    </contour>
  </outline>
</glyph>
<glyph name="minute" format="2">
  <advance width="509"/>
  <unicode hex="2032"/>
  <outline>
    <contour>
      <point x="235" y="794" type="curve" smooth="yes"/>
      <point x="246" y="794"/>
      <point x="261" y="795"/>
      <point x="278" y="815" type="curve" smooth="yes"/>
      <point x="684" y="1439" type="line" smooth="yes"/>
      <point x="712" y="1477"/>
      <point x="705" y="1509"/>
      <point x="663" y="1509" type="curve" smooth="yes"/>
      <point x="629" y="1509"/>
      <point x="606" y="1494"/>
      <point x="580" y="1455" type="curve" smooth="yes"/>
      <point x="230" y="822" type="line" smooth="yes"/>
      <point x="217" y="804"/>
      <point x="222" y="794"/>
    </contour>
  </outline>
</glyph>
<glyph name="four.superior" format="2">
  <advance width="678"/>
  <unicode hex="2074"/>
  <outline>
    <contour>
      <point x="580" y="1100" type="curve" smooth="yes"/>
      <point x="502" y="803" type="line" smooth="yes"/>
      <point x="496" y="785"/>
      <point x="480" y="774"/>
      <point x="456" y="771" type="curve" smooth="yes"/>
      <point x="408" y="765" type="line" smooth="yes"/>
      <point x="395" y="764"/>
      <point x="387" y="758"/>
      <point x="384" y="749" type="curve" smooth="yes"/>
      <point x="381" y="740"/>
      <point x="386" y="735"/>
      <point x="399" y="735" type="curve" smooth="yes"/>
      <point x="626" y="735" type="line" smooth="yes"/>
      <point x="639" y="735"/>
      <point x="647" y="740"/>
      <point x="651" y="749" type="curve" smooth="yes"/>
      <point x="653" y="758"/>
      <point x="648" y="764"/>
      <point x="636" y="765" type="curve" smooth="yes"/>
      <point x="592" y="771" type="line" smooth="yes"/>
      <point x="571" y="774"/>
      <point x="561" y="785"/>
      <point x="568" y="803" type="curve" smooth="yes"/>
      <point x="658" y="1155" type="line" smooth="yes"/>
      <point x="660" y="1161"/>
      <point x="657" y="1165"/>
      <point x="651" y="1165" type="curve" smooth="yes"/>
      <point x="645" y="1165"/>
      <point x="641" y="1164"/>
      <point x="633" y="1158" type="curve" smooth="yes"/>
      <point x="598" y="1126" type="line" smooth="yes"/>
      <point x="590" y="1120"/>
      <point x="584" y="1113"/>
    </contour>
    <contour>
      <point x="568" y="1215" type="curve" smooth="yes"/>
      <point x="233" y="939" type="line" smooth="yes"/>
      <point x="219" y="930"/>
      <point x="213" y="924"/>
      <point x="210" y="918" type="curve" smooth="yes"/>
      <point x="208" y="909"/>
      <point x="214" y="902"/>
      <point x="229" y="902" type="curve" smooth="yes"/>
      <point x="691" y="902" type="line" smooth="yes"/>
      <point x="705" y="902"/>
      <point x="713" y="909"/>
      <point x="717" y="919" type="curve" smooth="yes"/>
      <point x="720" y="930"/>
      <point x="714" y="934"/>
      <point x="703" y="934" type="curve" smooth="yes"/>
      <point x="245" y="934" type="line"/>
      <point x="248" y="912" type="line"/>
      <point x="614" y="1205" type="line" smooth="yes"/>
      <point x="670" y="1254"/>
      <point x="698" y="1291"/>
      <point x="710" y="1337" type="curve" smooth="yes"/>
      <point x="722" y="1384"/>
      <point x="703" y="1415"/>
      <point x="676" y="1415" type="curve" smooth="yes"/>
      <point x="642" y="1415"/>
      <point x="619" y="1396"/>
      <point x="611" y="1370" type="curve" smooth="yes"/>
      <point x="603" y="1335"/>
      <point x="624" y="1316"/>
      <point x="616" y="1281" type="curve" smooth="yes"/>
      <point x="610" y="1257"/>
      <point x="591" y="1238"/>
    </contour>
  </outline>
</glyph>
<glyph name="franc" format="2">
  <advance width="1099"/>
  <unicode hex="20A3"/>
  <outline>
    <contour>
      <point x="389" y="1384" type="curve" smooth="yes"/>
      <point x="386" y="1370"/>
      <point x="401" y="1366"/>
      <point x="430" y="1361" type="curve" smooth="yes"/>
      <point x="486" y="1350" type="line" smooth="yes"/>
      <point x="516" y="1345"/>
      <point x="532" y="1327"/>
      <point x="525" y="1295" type="curve" smooth="yes"/>
      <point x="455" y="981"/>
      <point x="320" y="477"/>
      <point x="217" y="119" type="curve" smooth="yes"/>
      <point x="204" y="78"/>
      <point x="179" y="58"/>
      <point x="135" y="52" type="curve" smooth="yes"/>
      <point x="83" y="44" type="line" smooth="yes"/>
      <point x="36" y="38"/>
      <point x="22" y="33"/>
      <point x="21" y="19" type="curve" smooth="yes"/>
      <point x="19" y="6"/>
      <point x="29" y="0"/>
      <point x="50" y="0" type="curve" smooth="yes"/>
      <point x="405" y="0" type="line" smooth="yes"/>
      <point x="451" y="0"/>
      <point x="465" y="9"/>
      <point x="465" y="22" type="curve" smooth="yes"/>
      <point x="465" y="33"/>
      <point x="447" y="39"/>
      <point x="407" y="43" type="curve" smooth="yes"/>
      <point x="341" y="52" type="line" smooth="yes"/>
      <point x="293" y="57"/>
      <point x="284" y="80"/>
      <point x="293" y="115" type="curve" smooth="yes"/>
      <point x="360" y="411"/>
      <point x="512" y="960"/>
      <point x="623" y="1369" type="curve"/>
      <point x="977" y="1369" type="line" smooth="yes"/>
      <point x="1070" y="1369"/>
      <point x="1119" y="1331"/>
      <point x="1170" y="1189" type="curve" smooth="yes"/>
      <point x="1186" y="1159"/>
      <point x="1195" y="1144"/>
      <point x="1217" y="1144" type="curve" smooth="yes"/>
      <point x="1234" y="1144"/>
      <point x="1242" y="1156"/>
      <point x="1235" y="1179" type="curve" smooth="yes"/>
      <point x="1185" y="1413" type="line" smooth="yes"/>
      <point x="1180" y="1431"/>
      <point x="1172" y="1437"/>
      <point x="1157" y="1437" type="curve" smooth="yes"/>
      <point x="1124" y="1437"/>
      <point x="1099" y="1400"/>
      <point x="1046" y="1400" type="curve" smooth="yes"/>
      <point x="431" y="1400" type="line" smooth="yes"/>
      <point x="409" y="1400"/>
      <point x="392" y="1397"/>
    </contour>
    <contour>
      <point x="424" y="782" type="line"/>
      <point x="409" y="739" type="line"/>
      <point x="929" y="739" type="line" smooth="yes"/>
      <point x="948" y="739"/>
      <point x="965" y="748"/>
      <point x="970" y="761" type="curve" smooth="yes"/>
      <point x="975" y="773"/>
      <point x="970" y="782"/>
      <point x="946" y="782" type="curve" smooth="yes"/>
    </contour>
    <contour>
      <point x="111" y="486" type="curve" smooth="yes"/>
      <point x="107" y="474"/>
      <point x="113" y="466"/>
      <point x="130" y="466" type="curve" smooth="yes"/>
      <point x="873" y="466" type="line" smooth="yes"/>
      <point x="891" y="466"/>
      <point x="906" y="474"/>
      <point x="910" y="486" type="curve" smooth="yes"/>
      <point x="915" y="497"/>
      <point x="905" y="505"/>
      <point x="886" y="505" type="curve" smooth="yes"/>
      <point x="146" y="505" type="line" smooth="yes"/>
      <point x="130" y="505"/>
      <point x="114" y="497"/>
    </contour>
  </outline>
</glyph>
<glyph name="dong" format="2">
  <advance width="1030"/>
  <unicode hex="20AB"/>
  <outline>
    <contour>
      <point x="25" y="-212" type="curve" smooth="yes"/>
      <point x="21" y="-225"/>
      <point x="28" y="-233"/>
      <point x="43" y="-233" type="curve" smooth="yes"/>
      <point x="791" y="-233" type="line" smooth="yes"/>
      <point x="809" y="-233"/>
      <point x="822" y="-225"/>
      <point x="825" y="-212" type="curve" smooth="yes"/>
      <point x="829" y="-201"/>
      <point x="820" y="-193"/>
      <point x="802" y="-193" type="curve" smooth="yes"/>
      <point x="56" y="-193" type="line" smooth="yes"/>
      <point x="42" y="-193"/>
      <point x="29" y="-201"/>
    </contour>
    <component base="dcroat" xOffset="21"/>
  </outline>
</glyph>
<glyph name="notequal" format="2">
  <advance width="1097"/>
  <unicode hex="2260"/>
  <outline>
    <contour>
      <point x="168" y="79" type="curve" smooth="yes"/>
      <point x="182" y="79"/>
      <point x="200" y="88"/>
      <point x="221" y="110" type="curve" smooth="yes"/>
      <point x="1067" y="1232" type="line" smooth="yes"/>
      <point x="1089" y="1256"/>
      <point x="1082" y="1273"/>
      <point x="1063" y="1273" type="curve" smooth="yes"/>
      <point x="1036" y="1273"/>
      <point x="1020" y="1261"/>
      <point x="1002" y="1240" type="curve" smooth="yes"/>
      <point x="157" y="114" type="line" smooth="yes"/>
      <point x="138" y="93"/>
      <point x="147" y="79"/>
    </contour>
    <component base="equal" xOffset="12"/>
  </outline>
</glyph>
<glyph name="greaterequal" format="2">
  <advance width="1098"/>
  <unicode hex="2265"/>
  <outline>
    <contour>
      <point x="992" y="763" type="line"/>
      <point x="991" y="758" type="line"/>
      <point x="388" y="1113" type="line" smooth="yes"/>
      <point x="371" y="1120"/>
      <point x="364" y="1132"/>
      <point x="367" y="1142" type="curve" smooth="yes"/>
      <point x="369" y="1149"/>
      <point x="378" y="1154"/>
      <point x="393" y="1154" type="curve" smooth="yes"/>
      <point x="406" y="1154"/>
      <point x="416" y="1148"/>
      <point x="432" y="1141" type="curve" smooth="yes"/>
      <point x="1006" y="806" type="line" smooth="yes"/>
      <point x="1036" y="793"/>
      <point x="1049" y="774"/>
      <point x="1042" y="752" type="curve" smooth="yes"/>
      <point x="1035" y="733"/>
      <point x="1014" y="721"/>
      <point x="980" y="710" type="curve" smooth="yes"/>
      <point x="245" y="373" type="line" smooth="yes"/>
      <point x="226" y="367"/>
      <point x="212" y="361"/>
      <point x="199" y="361" type="curve" smooth="yes"/>
      <point x="177" y="361"/>
      <point x="172" y="368"/>
      <point x="175" y="380" type="curve" smooth="yes"/>
      <point x="178" y="389"/>
      <point x="193" y="401"/>
      <point x="215" y="408" type="curve" smooth="yes"/>
    </contour>
    <component base="minus" xOffset="-113" yOffset="-515"/>
  </outline>
</glyph>
<glyph name="acute.cap" format="2">
  <advance width="410"/>
  <anchor x="97" y="991" name="center"/>
  <outline>
    <contour>
      <point x="274" y="1202" type="curve" smooth="yes"/>
      <point x="75" y="1046" type="line" smooth="yes"/>
      <point x="67" y="1040"/>
      <point x="59" y="1032"/>
      <point x="63" y="1026" type="curve" smooth="yes"/>
      <point x="66" y="1021"/>
      <point x="76" y="1021"/>
      <point x="83" y="1025" type="curve" smooth="yes"/>
      <point x="313" y="1143" type="line" smooth="yes"/>
      <point x="351" y="1164"/>
      <point x="384" y="1181"/>
      <point x="397" y="1206" type="curve" smooth="yes"/>
      <point x="411" y="1226"/>
      <point x="406" y="1248"/>
      <point x="385" y="1256" type="curve" smooth="yes"/>
      <point x="356" y="1265"/>
      <point x="325" y="1241"/>
    </contour>
  </outline>
</glyph>
<glyph name="breveacute.cap" format="2">
  <advance width="538"/>
  <anchor x="268" y="954" name="center"/>
  <outline>
    <contour>
      <point x="281" y="1094" type="curve" smooth="yes"/>
      <point x="193" y="1094"/>
      <point x="147" y="1138"/>
      <point x="145" y="1244" type="curve" smooth="yes"/>
      <point x="144" y="1256"/>
      <point x="140" y="1259"/>
      <point x="134" y="1259" type="curve" smooth="yes"/>
      <point x="127" y="1259"/>
      <point x="120" y="1254"/>
      <point x="117" y="1242" type="curve" smooth="yes"/>
      <point x="88" y="1115"/>
      <point x="141" y="1026"/>
      <point x="263" y="1026" type="curve" smooth="yes"/>
      <point x="383" y="1026"/>
      <point x="485" y="1115"/>
      <point x="524" y="1242" type="curve" smooth="yes"/>
      <point x="528" y="1254"/>
      <point x="523" y="1259"/>
      <point x="516" y="1259" type="curve" smooth="yes"/>
      <point x="510" y="1259"/>
      <point x="504" y="1256"/>
      <point x="497" y="1244" type="curve" smooth="yes"/>
      <point x="439" y="1138"/>
      <point x="369" y="1094"/>
    </contour>
    <contour>
      <point x="471" y="1434" type="curve" smooth="yes"/>
      <point x="299" y="1286" type="line" smooth="yes"/>
      <point x="290" y="1280"/>
      <point x="282" y="1272"/>
      <point x="287" y="1266" type="curve" smooth="yes"/>
      <point x="292" y="1260"/>
      <point x="300" y="1261"/>
      <point x="308" y="1265" type="curve" smooth="yes"/>
      <point x="513" y="1377" type="line" smooth="yes"/>
      <point x="551" y="1398"/>
      <point x="582" y="1417"/>
      <point x="596" y="1441" type="curve" smooth="yes"/>
      <point x="608" y="1462"/>
      <point x="603" y="1484"/>
      <point x="580" y="1491" type="curve" smooth="yes"/>
      <point x="550" y="1499"/>
      <point x="520" y="1475"/>
    </contour>
  </outline>
</glyph>
<glyph name="brevehook.cap" format="2">
  <advance width="525"/>
  <anchor x="268" y="954" name="center"/>
  <outline>
    <contour>
      <point x="281" y="1094" type="curve" smooth="yes"/>
      <point x="193" y="1094"/>
      <point x="146" y="1138"/>
      <point x="145" y="1244" type="curve" smooth="yes"/>
      <point x="144" y="1256"/>
      <point x="140" y="1259"/>
      <point x="134" y="1259" type="curve" smooth="yes"/>
      <point x="127" y="1259"/>
      <point x="120" y="1254"/>
      <point x="117" y="1242" type="curve" smooth="yes"/>
      <point x="88" y="1115"/>
      <point x="141" y="1026"/>
      <point x="263" y="1026" type="curve" smooth="yes"/>
      <point x="383" y="1026"/>
      <point x="485" y="1115"/>
      <point x="524" y="1242" type="curve" smooth="yes"/>
      <point x="528" y="1254"/>
      <point x="523" y="1259"/>
      <point x="516" y="1259" type="curve" smooth="yes"/>
      <point x="510" y="1259"/>
      <point x="504" y="1256"/>
      <point x="497" y="1244" type="curve" smooth="yes"/>
      <point x="439" y="1138"/>
      <point x="369" y="1094"/>
    </contour>
    <contour>
      <point x="282" y="1248" type="curve" smooth="yes"/>
      <point x="283" y="1256"/>
      <point x="292" y="1264"/>
      <point x="304" y="1265" type="curve" smooth="yes"/>
      <point x="394" y="1278"/>
      <point x="443" y="1326"/>
      <point x="459" y="1388" type="curve" smooth="yes"/>
      <point x="475" y="1450"/>
      <point x="442" y="1479"/>
      <point x="391" y="1479" type="curve" smooth="yes"/>
      <point x="327" y="1479"/>
      <point x="294" y="1447"/>
      <point x="282" y="1401" type="curve" smooth="yes"/>
      <point x="276" y="1378" type="line" smooth="yes"/>
      <point x="269" y="1349"/>
      <point x="246" y="1333"/>
      <point x="222" y="1333" type="curve" smooth="yes"/>
      <point x="197" y="1333"/>
      <point x="188" y="1353"/>
      <point x="194" y="1378" type="curve" smooth="yes"/>
      <point x="214" y="1450"/>
      <point x="308" y="1513"/>
      <point x="401" y="1513" type="curve" smooth="yes"/>
      <point x="491" y="1513"/>
      <point x="547" y="1466"/>
      <point x="526" y="1388" type="curve" smooth="yes"/>
      <point x="510" y="1322"/>
      <point x="445" y="1255"/>
      <point x="323" y="1238" type="curve" smooth="yes"/>
      <point x="285" y="1233"/>
      <point x="281" y="1239"/>
    </contour>
  </outline>
</glyph>
<glyph name="h.alt" format="2">
  <advance width="1062"/>
  <anchor x="429" y="980" name="center"/>
  <outline>
    <contour>
      <point x="270" y="412" type="line"/>
      <point x="259" y="418" type="line"/>
      <point x="416" y="790"/>
      <point x="672" y="914"/>
      <point x="813" y="914" type="curve" smooth="yes"/>
      <point x="965" y="914"/>
      <point x="955" y="818"/>
      <point x="893" y="642" type="curve" smooth="yes"/>
      <point x="735" y="194" type="line" smooth="yes"/>
      <point x="694" y="79"/>
      <point x="709" y="38"/>
      <point x="751" y="38" type="curve" smooth="yes"/>
      <point x="777" y="38"/>
      <point x="807" y="54"/>
      <point x="851" y="99" type="curve" smooth="yes"/>
      <point x="867" y="115"/>
      <point x="877" y="121"/>
      <point x="886" y="117" type="curve" smooth="yes"/>
      <point x="895" y="113"/>
      <point x="892" y="101"/>
      <point x="885" y="88" type="curve" smooth="yes"/>
      <point x="848" y="24"/>
      <point x="781" y="-15"/>
      <point x="720" y="-15" type="curve" smooth="yes"/>
      <point x="647" y="-15"/>
      <point x="617" y="48"/>
      <point x="664" y="183" type="curve" smooth="yes"/>
      <point x="827" y="650" type="line" smooth="yes"/>
      <point x="884" y="813"/>
      <point x="861" y="861"/>
      <point x="776" y="861" type="curve" smooth="yes"/>
      <point x="638" y="861"/>
      <point x="379" y="685"/>
      <point x="244" y="298" type="curve" smooth="yes"/>
      <point x="213" y="208"/>
      <point x="201" y="133"/>
      <point x="201" y="102" type="curve" smooth="yes"/>
      <point x="201" y="72"/>
      <point x="207" y="63"/>
      <point x="207" y="36" type="curve" smooth="yes"/>
      <point x="207" y="6"/>
      <point x="175" y="-15"/>
      <point x="139" y="-15" type="curve" smooth="yes"/>
      <point x="104" y="-15"/>
      <point x="95" y="22"/>
      <point x="111" y="78" type="curve" smooth="yes"/>
      <point x="433" y="1224" type="line" smooth="yes"/>
      <point x="466" y="1340"/>
      <point x="451" y="1381"/>
      <point x="409" y="1381" type="curve" smooth="yes"/>
      <point x="383" y="1381"/>
      <point x="353" y="1365"/>
      <point x="309" y="1320" type="curve" smooth="yes"/>
      <point x="293" y="1304"/>
      <point x="283" y="1298"/>
      <point x="274" y="1302" type="curve" smooth="yes"/>
      <point x="265" y="1306"/>
      <point x="268" y="1318"/>
      <point x="275" y="1331" type="curve" smooth="yes"/>
      <point x="312" y="1395"/>
      <point x="379" y="1434"/>
      <point x="440" y="1434" type="curve" smooth="yes"/>
      <point x="508.5076923076923" y="1434.0"/>
      <point x="539.2982453298354" y="1370.2820677970767"/>
      <point x="501" y="1234" type="curve" smooth="yes"/>
    </contour>
  </outline>
</glyph>
<glyph name="hungarumlaut.cap" format="2">
  <advance width="552"/>
  <anchor x="206" y="963" name="center"/>
  <outline>
    <contour>
      <point x="206" y="1212" type="curve" smooth="yes"/>
      <point x="73" y="1048" type="line" smooth="yes"/>
      <point x="64" y="1038"/>
      <point x="59" y="1029"/>
      <point x="65" y="1024" type="curve" smooth="yes"/>
      <point x="71" y="1019"/>
      <point x="81" y="1022"/>
      <point x="91" y="1029" type="curve" smooth="yes"/>
      <point x="265" y="1169" type="line" smooth="yes"/>
      <point x="291" y="1191"/>
      <point x="317" y="1211"/>
      <point x="327" y="1235" type="curve" smooth="yes"/>
      <point x="339" y="1261"/>
      <point x="328" y="1279"/>
      <point x="305" y="1283" type="curve" smooth="yes"/>
      <point x="270" y="1288"/>
      <point x="244" y="1258"/>
    </contour>
    <contour>
      <point x="430" y="1212" type="curve" smooth="yes"/>
      <point x="296" y="1048" type="line" smooth="yes"/>
      <point x="288" y="1038"/>
      <point x="283" y="1029"/>
      <point x="288" y="1024" type="curve" smooth="yes"/>
      <point x="294" y="1019"/>
      <point x="304" y="1022"/>
      <point x="315" y="1029" type="curve" smooth="yes"/>
      <point x="488" y="1169" type="line" smooth="yes"/>
      <point x="514" y="1191"/>
      <point x="540" y="1211"/>
      <point x="551" y="1235" type="curve" smooth="yes"/>
      <point x="562" y="1261"/>
      <point x="551" y="1279"/>
      <point x="529" y="1283" type="curve" smooth="yes"/>
      <point x="494" y="1288"/>
      <point x="469" y="1258"/>
    </contour>
  </outline>
</glyph>
